<?xml version="1.0" encoding="UTF-8"?>
<!DOCTYPE svg PUBLIC "-//W3C//DTD SVG 1.1//EN" "http://www.w3.org/Graphics/SVG/1.1/DTD/svg11.dtd">
<svg xmlns="http://www.w3.org/2000/svg" version="1.1" width="335px" height="283px" style="shape-rendering:geometricPrecision; text-rendering:geometricPrecision; image-rendering:optimizeQuality; fill-rule:evenodd; clip-rule:evenodd" xmlns:xlink="http://www.w3.org/1999/xlink">
<g><path style="opacity:0.965" fill="#fcfdfd" d="M 165.5,-0.5 C 171.833,-0.5 178.167,-0.5 184.5,-0.5C 186.127,1.62976 187.96,3.62976 190,5.5C 190.333,7.83333 190.667,10.1667 191,12.5C 194.883,8.94956 199.049,5.7829 203.5,3C 221.477,-0.0220172 229.311,7.47798 227,25.5C 226.166,28.1724 225.332,30.839 224.5,33.5C 226.306,36.472 228.306,39.3053 230.5,42C 242.298,48.4611 252.965,56.4611 262.5,66C 282.032,71.1326 301.698,75.7993 321.5,80C 326.647,82.9844 330.98,86.8177 334.5,91.5C 334.5,96.8333 334.5,102.167 334.5,107.5C 329.621,114.887 323.788,121.554 317,127.5C 312.309,136.527 305.809,144.027 297.5,150C 293.05,152.261 288.383,153.928 283.5,155C 272.14,155.826 260.807,156.826 249.5,158C 245.356,165.035 243.356,172.701 243.5,181C 247.336,208.51 254.836,235.01 266,260.5C 266.667,265.5 266.667,270.5 266,275.5C 263.628,277.703 261.461,280.037 259.5,282.5C 253.5,282.5 247.5,282.5 241.5,282.5C 231.028,278.592 221.361,273.092 212.5,266C 202.696,257.197 193.196,248.03 184,238.5C 155.338,269.496 120.171,280.663 78.5,272C 44.4633,262.631 20.2966,241.798 6,209.5C 3.01919,201.238 0.852519,192.905 -0.5,184.5C -0.5,174.5 -0.5,164.5 -0.5,154.5C 2.40331,136.012 9.23665,119.012 20,103.5C 26.3333,95.8333 32.6667,88.1667 39,80.5C 56.139,64.701 71.8056,47.701 86,29.5C 88.9398,23.9541 91.6065,18.2874 94,12.5C 98.0549,7.68407 103.222,6.18407 109.5,8C 111.333,9.83333 113.167,11.6667 115,13.5C 119.224,26.2849 126.224,37.2849 136,46.5C 141.078,36.0099 146.411,25.6765 152,15.5C 155.959,9.70755 160.459,4.37421 165.5,-0.5 Z"/></g>
<g><path style="opacity:1" fill="#212120" d="M 180.5,28.5 C 180.183,31.5719 180.516,34.5719 181.5,37.5C 182.107,37.3764 182.44,37.0431 182.5,36.5C 190.306,27.2685 199.306,19.4351 209.5,13C 213.693,12.3516 216.026,14.185 216.5,18.5C 216.132,21.638 215.299,24.638 214,27.5C 213.333,31.1667 213.333,34.8333 214,38.5C 216.6,42.097 218.766,45.9303 220.5,50C 232.9,56.0658 243.9,64.0658 253.5,74C 255.67,75.5862 258.004,76.9196 260.5,78C 277.431,81.9884 294.431,85.6551 311.5,89C 324.222,91.5877 327.056,98.0877 320,108.5C 311.555,115.612 304.555,123.946 299,133.5C 294.345,138.913 288.512,142.413 281.5,144C 269.574,145.854 257.574,146.854 245.5,147C 241.725,148.442 238.892,150.942 237,154.5C 231.155,173.131 231.155,191.797 237,210.5C 241.862,228.888 247.862,246.888 255,264.5C 255.497,266.81 255.663,269.143 255.5,271.5C 251.486,271.666 247.486,271.499 243.5,271C 232.519,266.178 222.519,259.845 213.5,252C 202.931,241.934 192.931,231.434 183.5,220.5C 204.685,180.374 201.851,142.04 175,105.5C 164.068,91.7317 152.234,78.7317 139.5,66.5C 147.285,48.9293 156.118,31.9293 166,15.5C 167.833,13.6667 169.667,11.8333 171.5,10C 174.099,9.23101 176.599,9.39768 179,10.5C 179.699,16.4888 180.199,22.4888 180.5,28.5 Z"/></g>
<g><path style="opacity:1" fill="#209bd5" d="M 139.5,66.5 C 152.234,78.7317 164.068,91.7317 175,105.5C 201.851,142.04 204.685,180.374 183.5,220.5C 160.902,252.458 129.902,266.624 90.5,263C 47.12,253.953 20.62,227.787 11,184.5C 7.59304,162.539 11.2597,141.872 22,122.5C 27.22,113.282 33.22,104.616 40,96.5C 56,79.8333 72,63.1667 88,46.5C 94.8785,38.0796 100.212,28.7462 104,18.5C 112.185,37.2046 124.018,53.2046 139.5,66.5 Z"/></g>
<g><path style="opacity:1" fill="#7d7979" d="M 180.5,28.5 C 181.167,31.1667 181.833,33.8333 182.5,36.5C 182.44,37.0431 182.107,37.3764 181.5,37.5C 180.516,34.5719 180.183,31.5719 180.5,28.5 Z"/></g>
<g><path style="opacity:1" fill="#fdfdfe" d="M 123.5,92.5 C 115.734,103.697 108.734,115.364 102.5,127.5C 95.1713,121.004 88.3379,114.004 82,106.5C 80.0873,102.471 80.0873,98.4708 82,94.5C 89.3333,87.1667 96.6667,79.8333 104,72.5C 110.703,79.0352 117.203,85.7018 123.5,92.5 Z"/></g>
<g><path style="opacity:1" fill="#f4f3f3" d="M 196.5,74.5 C 196.917,73.8761 197.584,73.5427 198.5,73.5C 205.132,74.8632 211.799,76.0299 218.5,77C 223.786,78.6413 228.453,81.308 232.5,85C 226.167,85.6667 219.833,85.6667 213.5,85C 207.931,81.2482 202.264,77.7482 196.5,74.5 Z"/></g>
<g><path style="opacity:1" fill="#202120" d="M 123.5,92.5 C 139.8,107.297 153.3,124.297 164,143.5C 170.431,157.915 171.097,172.581 166,187.5C 164.666,191.104 162.166,192.271 158.5,191C 155.212,186.923 152.045,182.756 149,178.5C 133.271,161.61 117.771,144.61 102.5,127.5C 108.734,115.364 115.734,103.697 123.5,92.5 Z"/></g>
<g><path style="opacity:1" fill="#fdfdfe" d="M 61.5,116.5 C 64.3943,117.882 66.8943,119.882 69,122.5C 76.0942,129.753 82.5942,137.42 88.5,145.5C 79.5871,156.586 70.0871,167.253 60,177.5C 56.6568,182.197 53.3235,186.864 50,191.5C 46.141,188.814 43.4743,185.147 42,180.5C 37.1226,163.931 39.1226,148.264 48,133.5C 52.0272,127.439 56.5272,121.772 61.5,116.5 Z"/></g>
<g><path style="opacity:1" fill="#282929" d="M 107.5,163.5 C 103.504,165.164 99.5044,166.831 95.5,168.5C 98.1288,165.369 100.962,162.369 104,159.5C 105.376,160.705 106.542,162.038 107.5,163.5 Z"/></g>
<g><path style="opacity:1" fill="#fdfdfe" d="M 107.5,163.5 C 113.842,169.843 119.842,176.509 125.5,183.5C 128.442,191.993 131.775,200.326 135.5,208.5C 134.621,224.749 126.288,234.916 110.5,239C 90.0448,241.192 77.2114,232.359 72,212.5C 70.8217,202.368 73.4884,193.368 80,185.5C 85.0042,179.664 90.1708,173.997 95.5,168.5C 99.5044,166.831 103.504,165.164 107.5,163.5 Z"/></g>
<g><path style="opacity:1" fill="#2b2e30" d="M 125.5,183.5 C 133.58,190.097 136.913,198.43 135.5,208.5C 131.775,200.326 128.442,191.993 125.5,183.5 Z"/></g>
</svg>
