<svg width="61" height="50" fill="none" xmlns="http://www.w3.org/2000/svg"><path fill-rule="evenodd" clip-rule="evenodd" d="M31.572 0c-1.56 0-4.27 5.827-7.422 12.748-5.656 7.365-8.969 14.625-9.447 16.103-.477 1.478-.216 2.429.675 2.013.136-.064.282-.135.444-.215.896-.44 2.31-1.134 5.629-2.218.415 6.268 3.725 11.35 5.398 13.502 1.672 2.152 2.98 1.645 2.698.337l-.018-.086c-.29-1.343-.89-4.12.3-6.398C41.453 51.024 46.383 50.117 46.904 49.92c.521-.198.41-.738 0-1.612-.41-.873-3.244-8.518-3.862-12.522-.618-4.005.006-7.428.914-8.71.714-1.01 2.038-1.049 4.14-1.111.57-.017 1.198-.036 1.885-.076 3.224-.188 4.706-1.415 5.206-1.947.182-.193.583-.768 1.046-1.43.808-1.157 1.802-2.581 2.137-2.702.527-.19 1.24-1.095 1.767-2.008.527-.914-.285-1.953-1.374-2.37-.62-.238-3.667-.86-6.298-1.396-1.985-.405-3.734-.762-4.025-.87l-.086-.03c-.64-.235-1.185-.434-2.222-1.486-2.287-2.317-5.789-3.955-5.789-3.955s-.028-.572-.675-1.321c-1.18-1.367 0-4.361 0-4.361s.344-.671-.674-1.342C37.975 0 32.92 5.368 32.92 5.368s-.123-2.774-.395-3.856c-.067-.266-.009-.518.042-.737.105-.46.178-.775-.996-.775Zm8.101 12.697c.908.202 1.749.471 3.403 1.93-.926-.18-1.603-.167-2.21-.155-.668.013-1.254.025-1.997-.224-.683-.228-.987-.497-1.365-.83-.409-.361-.903-.798-2.053-1.34 1.073.239 2.028.34 2.818.425.556.06 1.03.11 1.404.194Z" fill="#202020" /><path d="M25.563 11.577c-3.304-3.287-6.474-6.425-7.408-9.978-.935 3.536-4.105 6.674-7.409 9.978C5.774 16.507.151 22.103.151 30.504c0 9.895 8.06 17.914 18.004 17.914s18.003-8.02 18.003-17.914c0-8.401-5.64-13.996-10.595-18.927ZM7.793 34.671c-1.101-.033-5.172-7.023 2.386-14.46l5.006 5.428a.42.42 0 0 1 0 .598l-.034.033c-1.201 1.212-6.273 6.293-6.907 8.052-.134.366-.334.349-.45.349Zm10.362 9.214c-3.42 0-6.19-2.756-6.19-6.16 0-1.56.617-2.954 1.534-4.067 1.118-1.361 4.656-5.18 4.656-5.18s3.47 3.885 4.638 5.164a5.948 5.948 0 0 1 1.552 4.084c0 3.403-2.77 6.16-6.19 6.16ZM30 33.891c-.133.282-.434.78-.85.797-.735.033-.802-.35-1.352-1.146-1.185-1.743-11.497-12.468-13.432-14.544-1.702-1.826-.234-3.104.434-3.785l3.32-3.304s7.392 6.973 10.462 11.738c3.07 4.765 2.035 8.882 1.418 10.244Z" fill="#009CDE" /></svg>